<svg xmlns="http://www.w3.org/2000/svg" width="180" height="240" fill="none" viewBox="0 0 180 240">
<!-- SVG created with Arrow, by QuiverAI (https://quiver.ai) -->
  <rect x="0" y="0" width="180" height="240" fill="#F5D7DC"/>
  <path d="m95.24 194.7s-4.44 16.28-4.44 17.89c0 1.7 3.42 7.41 7.89 11.92 4.47 4.52-7.94 5.65-11.86 2.25-3.91-3.4-6.22-5.2-7.32-6.68-1.11-1.48 1.01-5.6 2.03-7.04 1.01-1.45 0.51-13.71 0.51-13.71" stroke="#771D37" stroke-linecap="round" stroke-linejoin="round" stroke-width="1.8"/>
  <path d="m81.03 213.8c3.92 4.82 9.8 12.09 14.58 7.7" stroke="#771D37" stroke-linecap="round" stroke-linejoin="round" stroke-width="1.2"/>
  <path d="m149.5 81.55c4.11 12.78-4.42 18.95-2.72 33.01 5.37 44.66-50.76 91.59-84.98 85.93-17.35-39.97-7.41-73.9 8.33-104.7" stroke="#771D37" stroke-linecap="round" stroke-linejoin="round" stroke-width="1.8"/>
  <path d="m70.09 145.9c1.07-10.28 2.48-17.89 4.2-26.74" stroke="#771D37" stroke-linecap="round" stroke-linejoin="round" stroke-width="1.2"/>
  <path d="m89.91 128.8c16.49-34.04 35.65-56.38 53.95-55.38" stroke="#771D37" stroke-linecap="round" stroke-linejoin="round" stroke-width="1.2"/>
  <path d="m143.9 74.46s0.74 6.57 5.04 8.63l4.23-5.61-3.23-7.95-6.04 4.93z" stroke="#771D37" stroke-linecap="round" stroke-linejoin="round" stroke-width="1.8"/>
  <path d="m150 69.6c7.17-8.66 12.52-17.26 16.83-15.82 3.4 1.13 1.63 7.58-2.05 13.76-3.68 6.17-2.18 10.68-11.73 9.88-1.67-1.72-3.05-7.83-3.05-7.83v0.01z" stroke="#771D37" stroke-linecap="round" stroke-linejoin="round" stroke-width="1.8"/>
  <path d="m166.9 53.78c-5.22 9.09-9.83 17.71-9.59 23.59" stroke="#771D37" stroke-linecap="round" stroke-linejoin="round" stroke-width="1.8"/>
  <path d="m68.49 65.64c-8.47 3.63-10.78 8.96-21.87 17.9-6.69 5.39-12.57 9.43-18.55 12.7 1.6 4.98 3.53 8.6 4.76 10.8 0.44 0.8 1.09 1.29 1.97 1.02 11.53-3.45 24.92-13.2 33.68-23.28" stroke="#771D37" stroke-linecap="round" stroke-linejoin="round" stroke-width="1.8"/>
  <path d="m28.07 97.36c-5.14 2.27-13.38 2.7-15.66 3.77-0.91 0.42-1.03 1.04-0.36 1.79 1.3 1.44 11.42 0.73 11.42 0.73-1.21 1.48-3.35 2.33-3.97 3.47-0.3 0.56 0.09 1.92 1.62 1.71 1.54-0.21 6.94-2.02 10.04-4.68" stroke="#771D37" stroke-linecap="round" stroke-linejoin="round" stroke-width="1.8"/>
  <path d="m84.06 94.84c8.81-1.99 14.03-6.42 14.33-7.03l-4.62-15.12" stroke="#771D37" stroke-linecap="round" stroke-linejoin="round" stroke-width="1.8"/>
  <path d="m82.43 84.94c1.83 9.94 2.45 29.44 2.45 29.44l-5.37 1.02-1.15-20.03" stroke="#771D37" stroke-linecap="round" stroke-linejoin="round" stroke-width="1.8"/>
  <path d="m72.97 95.79-4.38 0.05c-0.25 0.03-0.48-0.12-0.53-0.36l-1.82-6.97" stroke="#771D37" stroke-linecap="round" stroke-linejoin="round" stroke-width="1.8"/>
  <path d="m79.73 80.28c-1.84-0.18-3.03 4.71-4.27 9.91-1.14 4.7-6.38 27.5-6.38 27.5l5.75 1.35 5.87-33.51" stroke="#771D37" stroke-linecap="round" stroke-linejoin="round" stroke-width="1.8"/>
  <path d="m89.94 81.83-0.78-3.24c-0.12-0.51-0.64-0.82-1.16-0.7l-8.08 1.97c-0.51 0.13-0.83 0.65-0.71 1.16l0.78 3.25c0.12 0.52 0.64 0.83 1.16 0.7l8.08-1.97c0.51-0.13 0.83-0.65 0.71-1.17z" stroke="#771D37" stroke-linecap="round" stroke-linejoin="round" stroke-width="1.8"/>
  <path d="m82.91 79.4 1.01 4.15" stroke="#771D37" stroke-linecap="round" stroke-linejoin="round" stroke-width="1.2"/>
  <path d="m81.61 75-8.77-7.46-3.53-2.28 1.6-3.5 10.69 9.29" stroke="#771D37" stroke-linecap="round" stroke-linejoin="round" stroke-width="1.8"/>
  <path d="m84.32 78.3c1.15-4.95 1.9-10.96 1.59-14.44l-3.12-0.3c0.31 3.88-0.42 9.53-1.53 15.32" stroke="#771D37" stroke-linecap="round" stroke-linejoin="round" stroke-width="1.8"/>
  <path d="m71.17 61.64 0.15-4.88" stroke="#771D37" stroke-linecap="round" stroke-linejoin="round" stroke-width="1.8"/>
  <path d="m67.64 56.64c-0.68 1.03-1.82 1.92-3.03 2.27-2.66 0.77-5.46-1.13-6.13-3.71-0.62-2.38 0.78-5.55 3.92-5.79" stroke="#771D37" stroke-linecap="round" stroke-linejoin="round" stroke-width="1.8"/>
  <path d="m64.77 53.36c-2.43-3.25-2.48-8.18-0.89-12.33 2.77-7.23 11.58-10.23 18.54-7.19 4.61 2.01 6.42 7.15 6 9.72-0.8 4.83 2.45 5.31 0.93 11.14-1.35 5.26-4 8.53-10.9 6.02" stroke="#771D37" stroke-linecap="round" stroke-linejoin="round" stroke-width="1.8"/>
  <path d="m73.46 50.9c-1.73-2.02-4.73-0.78-4.4 1.93 0.28 2.24 2.62 4.32 4.18 3.64" stroke="#771D37" stroke-linecap="round" stroke-linejoin="round" stroke-width="1.8"/>
  <path d="m72.69 50.24c6.06-3.9 9.53-9.79 9.61-16.26" stroke="#771D37" stroke-linecap="round" stroke-linejoin="round" stroke-width="1.2"/>
  <path d="m127.3 61.71c1.5 2.8 2.72 7.05 3.58 9.77-11.69 5.92-22.46 8.38-34.92 7.31" stroke="#771D37" stroke-linecap="round" stroke-linejoin="round" stroke-width="1.8"/>
  <path d="m128.4 61.66c3.93-2.96 9.32-6.66 12.64-7.77 1.25-0.42 1.81 1.24 0.73 2.38-2.89 3.08-6.28 5.55-6.28 5.55 2.01-0.64 4.03-0.87 4.87-0.27 1.82 1.30-4.44 5.44-9.77 6.82" stroke="#771D37" stroke-linecap="round" stroke-linejoin="round" stroke-width="1.8"/>
  <path d="m84.56 63.4c19.94 1.79 25.72 2.36 43.08-1.59" stroke="#771D37" stroke-linecap="round" stroke-linejoin="round" stroke-width="1.8"/>
  <path d="m97.45 89.09c3.79 1.9 11.15 7.1 11.15 7.1" stroke="#771D37" stroke-linecap="round" stroke-linejoin="round" stroke-width="1.8"/>
  <path d="m92.62 91.68c3.81 3.43 10.97 12.19 10.97 12.19" stroke="#771D37" stroke-linecap="round" stroke-linejoin="round" stroke-width="1.2"/>
  <ellipse cx="159.4" cy="39.71" rx="5.786" ry="2.786" stroke="#771D37" stroke-linecap="round" stroke-linejoin="round" stroke-width="1.8"/>
  <rect x="157.3" y="11.5" width="3.886" height="25.26" fill="#FCE0E0" stroke="#771D37" stroke-linecap="round" stroke-linejoin="round" stroke-width="1.8"/>
  <path d="m150.6 16.43 7.86 17.12" stroke="#771D37" stroke-linecap="round" stroke-width="2.4"/>
  <path d="m168.1 16.11-6.93 17.61" stroke="#771D37" stroke-linecap="round" stroke-width="2.4"/>
</svg>
